<svg xmlns="http://www.w3.org/2000/svg" version="1.1" xmlns:xlink="http://www.w3.org/1999/xlink" width="512" height="512" x="0" y="0" viewBox="0 0 497 497" style="enable-background:new 0 0 512 512" xml:space="preserve" class=""><g><path fill="#ffb3dd" d="M161.965 497a24.928 24.928 0 0 1-17.196-6.851c-10.033-9.499-10.464-25.333-.965-35.366 25.979-27.435 37.146-67.455 33.191-118.946-3.101-40.372-14.565-71.695-14.681-72.007-4.799-12.956 1.814-27.35 14.77-32.148 12.956-4.801 27.35 1.814 32.148 14.77.571 1.541 14.018 38.277 17.649 85.555 5.01 65.238-11.155 119.589-46.748 157.179-4.917 5.193-11.537 7.814-18.168 7.814zM85.106 488.224c-11.113 0-21.258-7.459-24.191-18.715-16.463-63.183-.095-102.005 14.346-136.258 18.957-44.965 17.196-58.349 15.157-73.846-1.802-13.699 7.841-26.264 21.54-28.066 13.694-1.802 26.264 7.841 28.066 21.539 5.571 42.338-7.302 72.872-18.659 99.81-12.995 30.823-24.218 57.442-12.032 104.206 3.484 13.37-4.531 27.033-17.901 30.516a25.075 25.075 0 0 1-6.326.814zM335.034 497c-6.631 0-13.249-2.621-18.169-7.816-35.592-37.589-51.757-91.941-46.747-157.179 3.63-47.277 17.078-84.014 17.648-85.555 4.799-12.956 19.193-19.568 32.148-14.77 12.947 4.796 19.56 19.173 14.779 32.122-.277.761-11.865 32.957-14.778 73.211-3.685 50.932 7.511 90.555 33.28 117.769 9.499 10.033 9.068 25.867-.965 35.366A24.93 24.93 0 0 1 335.034 497zM411.894 488.224c-2.088 0-4.209-.263-6.324-.814-13.37-3.484-21.384-17.146-17.901-30.516 12.185-46.763.963-73.383-12.032-104.205-11.357-26.94-24.23-57.474-18.659-99.811 1.802-13.698 14.359-23.345 28.066-21.539 13.699 1.802 23.342 14.368 21.539 28.066-3.8 28.881 4.985 49.719 15.158 73.846 14.44 34.253 30.809 73.076 14.345 136.258-2.933 11.255-13.079 18.715-24.192 18.715z" opacity="1" data-original="#ffb3dd" class=""></path><g fill="#ff9dd3"><path d="M406.583 259.405c1.803-13.699-7.84-26.264-21.539-28.067-13.707-1.806-26.264 7.841-28.066 21.539-4.062 30.869 1.684 55.46 9.495 76.961a92.796 92.796 0 0 0 14.137 1.096 92.633 92.633 0 0 0 36.957-7.691c-8.218-20.134-14.251-39.016-10.984-63.838zM319.915 231.681c-12.955-4.798-27.349 1.814-32.148 14.77-.556 1.5-13.316 36.373-17.338 81.85a92.664 92.664 0 0 0 26.899-11.266 32.69 32.69 0 0 1 17.228-4.904c2.758 0 5.483.365 8.126 1.043 4.48-28.432 11.794-48.767 12.013-49.37 4.779-12.95-1.833-27.327-14.78-32.123zM177.085 231.681c-12.956 4.798-19.569 19.192-14.77 32.148.093.25 7.494 20.488 12.017 49.341a32.685 32.685 0 0 1 8.113-1.041 32.685 32.685 0 0 1 17.227 4.904 92.661 92.661 0 0 0 26.9 11.267c-4.023-45.477-16.783-80.35-17.339-81.85-4.798-12.955-19.192-19.57-32.148-14.769zM111.957 231.338c-13.699 1.802-23.342 14.368-21.54 28.067 1.879 14.275 3.507 26.778-11.064 63.804a92.616 92.616 0 0 0 37.038 7.725c4.754 0 9.477-.377 14.136-1.096 7.812-21.501 13.558-46.092 9.496-76.961-1.802-13.698-14.372-23.341-28.066-21.539z" fill="#ff9dd3" opacity="1" data-original="#ff9dd3"></path></g><path fill="#ff88ca" d="m434.884 234.046-15.153-47.629H77.269l-15.153 47.629c-6.925 21.767 1.831 45.456 21.248 57.486a62.709 62.709 0 0 0 66.054 0 62.709 62.709 0 0 1 66.054 0 62.709 62.709 0 0 0 66.054 0 62.709 62.709 0 0 1 66.054 0 62.709 62.709 0 0 0 66.054 0c19.419-12.03 28.175-35.719 21.25-57.486z" opacity="1" data-original="#ff88ca" class=""></path><path fill="#ff75c0" d="M96.613 186.417H77.269l-15.153 47.629c-6.925 21.767 1.831 45.456 21.248 57.486 17.266 10.697 38.427 12.258 56.836 4.7-23.232-31.248-38.734-68.847-43.587-109.815z" opacity="1" data-original="#ff75c0"></path><path fill="#ffc8e5" d="M248.5 0C136.339 0 45.415 78.745 45.415 175.881l.002.779c.194 38.642 34.545 68.112 72.855 63.054 41.053-5.42 84.812-8.347 130.229-8.347s89.176 2.926 130.229 8.347c38.31 5.058 72.661-24.413 72.855-63.054l.002-.779C451.585 78.745 360.661 0 248.5 0z" opacity="1" data-original="#ffc8e5" class=""></path><ellipse cx="149.097" cy="150.537" fill="#ff9db0" rx="36.678" ry="29.208" opacity="1" data-original="#ff9db0"></ellipse><ellipse cx="347.903" cy="150.537" fill="#ff9db0" rx="36.678" ry="29.208" opacity="1" data-original="#ff9db0"></ellipse><path fill="#423e4f" d="M187.931 126.253a7.5 7.5 0 0 1-7.5-7.5c0-5.491-4.467-9.958-9.958-9.958s-9.958 4.467-9.958 9.958a7.5 7.5 0 0 1-15 0c0-13.762 11.196-24.958 24.958-24.958s24.958 11.196 24.958 24.958a7.5 7.5 0 0 1-7.5 7.5zM343.984 126.253a7.5 7.5 0 0 1-7.5-7.5c0-5.491-4.467-9.958-9.957-9.958-5.491 0-9.958 4.467-9.958 9.958a7.5 7.5 0 0 1-15 0c0-13.762 11.196-24.958 24.958-24.958s24.957 11.196 24.957 24.958a7.5 7.5 0 0 1-7.5 7.5zM248.5 155.094a32.059 32.059 0 0 1-24.172-11.009 7.5 7.5 0 0 1 11.309-9.855c3.248 3.727 7.936 5.864 12.864 5.864s9.617-2.137 12.864-5.864a7.5 7.5 0 0 1 10.582-.726 7.5 7.5 0 0 1 .727 10.582 32.07 32.07 0 0 1-24.174 11.008z" opacity="1" data-original="#423e4f"></path><path fill="#ffb3dd" d="M94.975 158.779c0-47.401 14.185-91.404 38.433-127.813-53.148 31.719-87.993 84.789-87.993 144.915l.002.779c.179 35.727 29.562 63.591 64.271 63.597-9.495-25.293-14.713-52.759-14.713-81.478z" opacity="1" data-original="#ffb3dd" class=""></path></g></svg>